{"title":"Beautiful.Boy.[2010].DvdRip.XviD-Kna","uid":6747805,"size":1566035968,"categoryP":"video","categoryS":"movies","magnet":"?xt=urn:btih:a42cec6bfc60add400e4d6bbd7020331454aaf09&amp;dn=Beautiful.Boy.%5B2010%5D.DvdRip.XviD-Kna&amp;tr=udp%3A%2F%2Ftracker.openbittorrent.com%3A80&amp;tr=udp%3A%2F%2Fopen.demonii.com%3A1337&amp;tr=udp%3A%2F%2Ftracker.coppersurfer.tk%3A6969&amp;tr=udp%3A%2F%2Fexodus.desync.com%3A6969","seeders":0,"leechers":0,"uploader":"Jon.Pson","files":-1,"time":1318726464,"description":"A married couple on the verge of separation are leveled by the news their 18-year-old son committed a mass shooting at his college, then took his own life. \n\n\n\nGeneral\nComplete name                    : Beautiful.Boy.[2010].DvdRip.XviD-KnÃƒÂ£\\Beautiful.Boy.[2010].DvdRip.XviD-KnÃƒÂ£.avi\nFormat                           : AVI\nFormat/Info                      : Audio Video Interleave\nFile size                        : 1.46 GiB\nDuration                         : 1h 40mn\nOverall bit rate                 : 2 075 Kbps\nWriting application              : VirtualDubMod 1.5.4.1 (build 2178/release)\nWriting library                  : VirtualDubMod build 2178/release\n\nVideo\nID                               : 0\nFormat                           : MPEG-4 Visual\nFormat profile                   : Advanced Simple@L5\nFormat settings, BVOP            : No\nFormat settings, QPel            : No\nFormat settings, GMC             : No warppoints\nFormat settings, Matrix          : Custom\nCodec ID                         : XVID\nCodec ID/Hint                    : XviD\nDuration                         : 1h 40mn\nBit rate                         : 1 621 Kbps\nWidth                            : 720 pixels\nHeight                           : 416 pixels\nDisplay aspect ratio             : 16:9\nFrame rate                       : 23.976 fps\nColor space                      : YUV\nChroma subsampling               : 4:2:0\nBit depth                        : 8 bits\nScan type                        : Progressive\nCompression mode                 : Lossy\nBits/(Pixel*Frame)               : 0.226\nStream size                      : 1.14 GiB (78%)\nWriting library                  : XviD 1.2.1 (UTC 2008-12-04)\n\nAudio\nID                               : 1\nFormat                           : AC-3\nFormat/Info                      : Audio Coding 3\nMode extension                   : CM (complete main)\nCodec ID                         : 2000\nDuration                         : 1h 40mn\nBit rate mode                    : Constant\nBit rate                         : 448 Kbps\nChannel(s)                       : 6 channels\nChannel positions                : Front: L C R, Side: L R, LFE\nSampling rate                    : 48.0 KHz\nBit depth                        : 16 bits\nCompression mode                 : Lossy\nStream size                      : 322 MiB (22%)\nAlignment                        : Split accross interleaves\nInterleave, duration             : 96 ms (2.30 video frames)\nInterleave, preload duration     : 96 ms\nLanguage                         : English\n\n","torrent":{"xt":"urn:btih:a42cec6bfc60add400e4d6bbd7020331454aaf09","amp;dn":"Beautiful.Boy.%5B2010%5D.DvdRip.XviD-Kna","amp;tr":["udp%3A%2F%2Ftracker.openbittorrent.com%3A80","udp%3A%2F%2Fopen.demonii.com%3A1337","udp%3A%2F%2Ftracker.coppersurfer.tk%3A6969","udp%3A%2F%2Fexodus.desync.com%3A6969"],"infoHash":"a42cec6bfc60add400e4d6bbd7020331454aaf09","infoHashBuffer":{"type":"Buffer","data":[164,44,236,107,252,96,173,212,0,228,214,187,215,2,3,49,69,74,175,9]},"announce":[],"urlList":[]}}